HIERARCHY
ROOT Hips
{
	OFFSET	0.00	0.00	0.00
	CHANNELS 6 Xposition Yposition Zposition Zrotation Xrotation Yrotation
	JOINT LeftUpLeg
	{
		OFFSET	 0.126116	-0.014019	-0.065224
		CHANNELS 3 Zrotation Xrotation Yrotation
		JOINT LeftLeg
		{
			OFFSET	 0.000000	 0.000000	 0.569914
			CHANNELS 3 Zrotation Xrotation Yrotation
			JOINT LeftFoot
			{
				OFFSET	 0.000000	 0.000000	 0.544423
				CHANNELS 3 Zrotation Xrotation Yrotation
				JOINT LeftToeBase
				{
					OFFSET	 0.000000	 0.000000	 0.207117
					CHANNELS 3 Zrotation Xrotation Yrotation
					End Site
					{
						OFFSET	 0.000000	 0.000000	 0.207117
					}
				}
			}
		}
	}
	JOINT RightUpLeg
	{
		OFFSET	-0.124023	-0.008373	-0.065224
		CHANNELS 3 Zrotation Xrotation Yrotation
		JOINT RightLeg
		{
			OFFSET	 0.000000	 0.000000	 0.570047
			CHANNELS 3 Zrotation Xrotation Yrotation
			JOINT RightFoot
			{
				OFFSET	 0.000000	 0.000000	 0.544354
				CHANNELS 3 Zrotation Xrotation Yrotation
				JOINT RightToeBase
				{
					OFFSET	 0.000000	 0.000000	 0.207540
					CHANNELS 3 Zrotation Xrotation Yrotation
					End Site
					{
						OFFSET	 0.000000	 0.000000	 0.207540
					}
				}
			}
		}
	}
	JOINT Spine
	{
		OFFSET	 0.000184	-0.007763	 0.117403
		CHANNELS 3 Zrotation Xrotation Yrotation
		JOINT Spine1
		{
			OFFSET	 0.000000	 0.000000	 0.137269
			CHANNELS 3 Zrotation Xrotation Yrotation
			JOINT Spine2
			{
				OFFSET	 0.000000	 0.000000	 0.156879
				CHANNELS 3 Zrotation Xrotation Yrotation
				JOINT LeftShoulder
				{
					OFFSET	 0.080501	-0.002496	 0.160144
					CHANNELS 3 Zrotation Xrotation Yrotation
					JOINT LeftArm
					{
						OFFSET	 0.000000	 0.000000	 0.164363
						CHANNELS 3 Zrotation Xrotation Yrotation
						JOINT LeftForeArm
						{
							OFFSET	 0.000000	 0.000000	 0.364576
							CHANNELS 3 Zrotation Xrotation Yrotation
							JOINT LeftHand
							{
								OFFSET	 0.000000	 0.000000	 0.360812
								CHANNELS 3 Zrotation Xrotation Yrotation
								JOINT LeftHandIndex1
								{
									OFFSET	 0.000000	 0.000000	 0.086006
									CHANNELS 3 Zrotation Xrotation Yrotation
									JOINT LeftHandIndex2
									{
										OFFSET	 0.000000	 0.000000	 0.047236
										CHANNELS 3 Zrotation Xrotation Yrotation
										JOINT LeftHandIndex3
										{
											OFFSET	-0.004284	-0.000551	 0.038166
											CHANNELS 3 Zrotation Xrotation Yrotation
											End Site
											{
												OFFSET	-0.004284	-0.000551	 0.038166
											}
										}
									}
								}
							}
						}
					}
				}
				JOINT Neck
				{
					OFFSET	 0.000000	 0.000000	 0.176489
					CHANNELS 3 Zrotation Xrotation Yrotation
					JOINT Head
					{
						OFFSET	 0.000000	-0.001747	 0.077940
						CHANNELS 3 Zrotation Xrotation Yrotation
						End Site
						{
							OFFSET	 0.000000	-0.001747	 0.077940
						}
					}
				}
				JOINT RightShoulder
				{
					OFFSET	-0.080363	 0.000306	 0.159706
					CHANNELS 3 Zrotation Xrotation Yrotation
					JOINT RightArm
					{
						OFFSET	 0.000000	 0.000000	 0.164196
						CHANNELS 3 Zrotation Xrotation Yrotation
						JOINT RightForeArm
						{
							OFFSET	 0.000000	 0.000000	 0.365611
							CHANNELS 3 Zrotation Xrotation Yrotation
							JOINT RightHand
							{
								OFFSET	 0.000000	 0.000000	 0.360648
								CHANNELS 3 Zrotation Xrotation Yrotation
								JOINT RightHandIndex1
								{
									OFFSET	 0.000000	 0.000000	 0.069977
									CHANNELS 3 Zrotation Xrotation Yrotation
									JOINT RightHandIndex2
									{
										OFFSET	 0.000000	 0.000000	 0.052305
										CHANNELS 3 Zrotation Xrotation Yrotation
										JOINT RightHandIndex3
										{
											OFFSET	 0.009002	-0.000782	 0.042196
											CHANNELS 3 Zrotation Xrotation Yrotation
											End Site
											{
												OFFSET	 0.009002	-0.000782	 0.042196
											}
										}
									}
								}
							}
						}
					}
				}
			}
		}
	}
}
MOTION
Frames:    12
Frame Time: 0.03333334
-20.161020	-44.368560	 0.710973	-50.983500	 9.460688	 3.105556	 5.614485	-20.652050	 175.440500	-4.261043	-36.311020	-0.999635	-1.171801	 83.509310	-0.500304	-2.333287	 36.505740	-0.185633	-1.996784	-22.641020	-178.947600	-2.013838	-40.412290	-0.970574	-1.515505	 86.999510	 0.724629	 2.392720	 26.348890	-0.043555	 4.457210	 4.940319	-1.614297	 7.504447	 3.541638	-2.037865	 8.625607	 1.510595	 0.457915	-101.546300	 88.592640	-167.526400	 54.669650	 68.106160	-64.601680	-4.893159	-4.318580	-17.826900	 7.066104	-10.659370	-5.397541	-2.021899	-11.154490	 7.119934	-5.213516	-0.193813	 3.566525	-1.378229	 35.397820	-2.634230	 0.707737	 1.296725	 0.639632	 2.488111	 2.808897	 0.097362	 96.587410	 87.892810	 170.258800	-50.709340	 75.768360	 64.106160	-2.065464	-12.770700	 23.261690	-24.496460	-11.512670	 9.748148	-7.428667	-4.196871	-37.120490	 5.070815	-0.697434	-9.399699	-2.350882	 35.473990	 5.254307
-20.166590	-44.370000	 0.713223	-50.752270	 9.031217	 2.939061	 5.417990	-20.137020	 175.377000	-4.293095	-36.501400	-1.145953	-1.306239	 83.726710	-0.560462	-2.327782	 37.112470	-0.200768	-1.720212	-21.253000	-179.000500	-1.780104	-38.879490	-0.677678	-1.398714	 86.417230	 0.933616	 2.395099	 25.636880	-0.058491	 4.318991	 4.944196	-1.578593	 7.455695	 3.906265	-2.058666	 8.754754	 1.849321	 0.438926	-100.932200	 88.613660	-168.352000	 53.404950	 68.486760	-63.022160	-4.715265	-4.253299	-16.697820	 7.534530	-10.690560	-5.382929	-3.335679	-11.759520	 4.032698	-5.213516	-0.193813	 3.566525	-1.378229	 35.397820	-2.634230	 0.767009	 1.556113	 0.750914	 2.677531	 3.304953	 0.159590	 96.866530	 87.955980	 169.971000	-52.162400	 75.646840	 65.235600	-2.515043	-12.686340	 23.025830	-24.554990	-11.514150	 9.745597	-7.318975	-4.238407	-36.807830	 5.070815	-0.697434	-9.399699	-2.350882	 35.473990	 5.254307
-20.176090	-44.370690	 0.713051	-50.070730	 8.853089	 2.839413	 5.038067	-19.517770	 175.145400	-4.045393	-36.218330	-1.210563	-1.434009	 83.689320	-0.546092	-2.322312	 37.689750	-0.215351	-2.099148	-19.013690	-179.357000	-1.016442	-35.684840	-0.492775	-1.460476	 86.470800	 1.291277	 2.392116	 26.520740	-0.039921	 4.061419	 4.531570	-1.785114	 7.312284	 4.317555	-2.069263	 8.827678	 2.397149	 0.400378	-99.313530	 88.516020	-170.240700	 52.598030	 69.290120	-62.267350	-4.799876	-4.240459	-15.537650	 8.278677	-10.722190	-5.365268	-3.253237	-11.970680	 4.219226	-5.213516	-0.193813	 3.566525	-1.378229	 35.397820	-2.634230	 0.744561	 1.886536	 1.031922	 2.848824	 4.211396	-0.034867	 97.874290	 88.171910	 168.967800	-53.109420	 75.796800	 65.350510	-2.866241	-12.582520	 22.793580	-24.571020	-11.515420	 9.744882	-7.129344	-4.035933	-36.472540	 5.070815	-0.697434	-9.399699	-2.350882	 35.473990	 5.254307
-20.180120	-44.370290	 0.713381	-50.328920	 8.869437	 3.255110	 4.909828	-19.231510	 174.686400	-4.140529	-35.835360	-1.345734	-1.487912	 83.430130	-0.710764	-2.322614	 37.659240	-0.214565	-2.374561	-18.473530	-179.809600	-1.380832	-34.847100	-0.890717	-1.966150	 86.196670	 1.226299	 2.397136	 24.968620	-0.072416	 4.182825	 4.313603	-2.296969	 7.485489	 4.391219	-2.179181	 8.894196	 2.560830	 0.390691	-98.712940	 88.380940	-170.800700	 52.272840	 69.995020	-62.168670	-5.315306	-4.294097	-15.401960	 8.569683	-10.726990	-5.360157	-3.413367	-12.226430	 3.845399	-5.213516	-0.193813	 3.566525	-1.378229	 35.397820	-2.634230	 0.879208	 2.134947	 1.144098	 2.834867	 4.329927	 0.057331	 98.427180	 88.317390	 168.506600	-53.319160	 75.854770	 65.246250	-2.997720	-12.527490	 22.672280	-24.578190	-11.516930	 9.743744	-7.050490	-3.860438	-36.400890	 5.070815	-0.697434	-9.399699	-2.350882	 35.473990	 5.254307
-20.183860	-44.369740	 0.713975	-51.223880	 8.903472	 3.037163	 5.002932	-18.688080	 174.973400	-4.556326	-35.139020	-1.483307	-1.546383	 83.067270	-0.915112	-2.324034	 37.510850	-0.210811	-2.466269	-18.499530	-179.618100	-1.872581	-34.458890	-1.207325	-2.516904	 86.052510	 1.309888	 2.397490	 24.843130	-0.075016	 4.511290	 4.065650	-1.930970	 7.761711	 4.370196	-2.019104	 8.981839	 2.581122	 0.392963	-99.120120	 88.404920	-170.303100	 52.666480	 70.366560	-62.317210	-6.351325	-4.231276	-16.241320	 7.756899	-10.704340	-5.377292	-3.880861	-12.986740	 2.771919	-5.213516	-0.193813	 3.566525	-1.378229	 35.397820	-2.634230	 1.064536	 2.252492	 1.041944	 2.813644	 4.463157	-0.210615	 97.762180	 88.289470	 169.337800	-53.051240	 75.810690	 64.872620	-3.248923	-12.502950	 22.475630	-24.725010	-11.520100	 9.740196	-6.980387	-3.675600	-36.358670	 5.070815	-0.697434	-9.399699	-2.350882	 35.473990	 5.254307
-20.186440	-44.368750	 0.714924	-51.651560	 8.876431	 2.572780	 5.121249	-18.068350	 175.357200	-4.755526	-34.354440	-1.465087	-1.635674	 82.870490	-0.886375	-2.326153	 37.286610	-0.205146	-2.470341	-18.610800	-179.313300	-1.903276	-34.547280	-1.206211	-2.668122	 86.053000	 1.468095	 2.396542	 25.166890	-0.068292	 4.561664	 4.204340	-1.437547	 7.768111	 4.339828	-1.786845	 9.011153	 2.543092	 0.397246	-99.423300	 88.441790	-169.969100	 54.686460	 69.529860	-64.060720	-6.242779	-4.122947	-17.232950	 6.781636	-10.681490	-5.394580	-3.683846	-12.704500	 3.220847	-5.213516	-0.193813	 3.566525	-1.378229	 35.397820	-2.634230	 1.110536	 2.178500	 0.954064	 2.858424	 4.632776	-0.384345	 97.623020	 88.239200	 169.432100	-52.564750	 75.675340	 64.540930	-3.513713	-12.485570	 22.241620	-24.926900	-11.523780	 9.737273	-6.972367	-3.632518	-36.370480	 5.070815	-0.697434	-9.399699	-2.350882	 35.473990	 5.254307
-20.188650	-44.368150	 0.716026	-51.592990	 8.916124	 2.392806	 5.123735	-17.775030	 175.448300	-4.716361	-33.814190	-1.402015	-1.722167	 82.793750	-0.766777	-2.327179	 37.177020	-0.202389	-2.512594	-18.520950	-179.298400	-1.739799	-34.769860	-1.133155	-2.736129	 86.057370	 1.649748	 2.395461	 25.522950	-0.060875	 4.374935	 4.231431	-1.478141	 7.618002	 4.381090	-1.664158	 9.006884	 2.574700	 0.394568	-98.451290	 88.317390	-171.046700	 56.983800	 68.258160	-66.580880	-4.736276	-4.289890	-17.729750	 7.030771	-10.676350	-5.395109	-3.421908	-11.686900	 3.833900	-5.213516	-0.193813	 3.566525	-1.378229	 35.397820	-2.634230	 1.093818	 2.241768	 0.983737	 2.922271	 4.679995	-0.150711	 98.672110	 88.366490	 168.280800	-51.375740	 75.526150	 63.525130	-3.691462	-12.470600	 22.058070	-25.084470	-11.528690	 9.735668	-7.022998	-3.713579	-36.440650	 5.070815	-0.697434	-9.399699	-2.350882	 35.473990	 5.254307
-20.190460	-44.367940	 0.716847	-51.289060	 8.941580	 2.273348	 5.109635	-17.658060	 175.462200	-4.529483	-33.555950	-1.288264	-1.673564	 82.757280	-0.671557	-2.328009	 37.087960	-0.200151	-2.549348	-18.409180	-179.300000	-1.540326	-34.780380	-1.038408	-2.773395	 86.047050	 1.827381	 2.394684	 25.764690	-0.055826	 4.102040	 4.080223	-1.534973	 7.378523	 4.423174	-1.637613	 8.943500	 2.615936	 0.388560	-97.806700	 88.271270	-171.844000	 58.148220	 67.605680	-68.250580	-4.049153	-4.426017	-18.051650	 7.271641	-10.675220	-5.396001	-3.259387	-11.040150	 4.225300	-5.213516	-0.193813	 3.566525	-1.378229	 35.397820	-2.634230	 0.989127	 2.291839	 1.047034	 2.974361	 4.778564	-0.075889	 99.850310	 88.494160	 167.018400	-49.653340	 75.412350	 61.907170	-3.671728	-12.463500	 22.022170	-25.106240	-11.535010	 9.734319	-7.062068	-3.702139	-36.550850	 5.070815	-0.697434	-9.399699	-2.350882	 35.473990	 5.254307
-20.191690	-44.367720	 0.717542	-50.882690	 8.914721	 2.118992	 5.099717	-17.554870	 175.469400	-4.264561	-33.413310	-1.138435	-1.731567	 82.753160	-0.392204	-2.328556	 37.027750	-0.198650	-2.679673	-18.267610	-179.250500	-1.323705	-34.729410	-0.979366	-2.844298	 86.029260	 1.985949	 2.394742	 25.747580	-0.056182	 3.833718	 4.047396	-1.453528	 7.108498	 4.410977	-1.675115	 8.828758	 2.604082	 0.384468	-97.669140	 88.315300	-172.091700	 58.801090	 67.162510	-69.326800	-4.232352	-4.380672	-18.613270	 6.821976	-10.667220	-5.404319	-3.386937	-10.908860	 3.928211	-5.213516	-0.193813	 3.566525	-1.378229	 35.397820	-2.634230	 0.823268	 2.222098	 1.055848	 3.003690	 4.962178	-0.255748	 99.824150	 88.446440	 166.946700	-47.803520	 75.278600	 60.226660	-3.528247	-12.480200	 22.104830	-25.054360	-11.542900	 9.733873	-7.100147	-3.632520	-36.702870	 5.070815	-0.697434	-9.399699	-2.350882	 35.473990	 5.254307
-20.192770	-44.367640	 0.717995	-50.518150	 8.910656	 2.057803	 5.033330	-17.375990	 175.477600	-4.048057	-33.256250	-1.044846	-1.785083	 82.778790	-0.208078	-2.329641	 36.910240	-0.195701	-2.787242	-18.073830	-179.324400	-1.107344	-34.664360	-0.917620	-2.919667	 86.021620	 2.154028	 2.394727	 25.752080	-0.056091	 3.643475	 3.997641	-1.392340	 6.887415	 4.335714	-1.760459	 8.683625	 2.532023	 0.383590	-97.999630	 88.427900	-171.813300	 59.090180	 66.452320	-69.949150	-4.042500	-4.465189	-19.723830	 6.503654	-10.650170	-5.415460	-3.305485	-10.640810	 4.125285	-5.213516	-0.193813	 3.566525	-1.378229	 35.397820	-2.634230	 0.659238	 2.114628	 1.081772	 2.983226	 5.079211	-0.531315	 99.344020	 88.350640	 167.364200	-45.872770	 75.131150	 58.502980	-3.178546	-12.485650	 22.328270	-24.834100	-11.553340	 9.736156	-7.143817	-3.542491	-36.885480	 5.070815	-0.697434	-9.399699	-2.350882	 35.473990	 5.254307
-20.193290	-44.367600	 0.718267	-50.242310	 8.957156	 2.057832	 5.021189	-17.326290	 175.449100	-3.891077	-33.099330	-0.958063	-1.846462	 82.834920	-0.026895	-2.330513	 36.814460	-0.193308	-2.813205	-17.991650	-179.286200	-0.939962	-34.597080	-0.833995	-2.984556	 86.022800	 2.344778	 2.394574	 25.800220	-0.055079	 3.537785	 3.898745	-1.350548	 6.735823	 4.245548	-1.829239	 8.534078	 2.453742	 0.382794	-98.426020	 88.520240	-171.394400	 58.858080	 65.726970	-70.230030	-3.888763	-4.648364	-21.290820	 6.283893	-10.631290	-5.427359	-3.461753	-10.727740	 3.754798	-5.213516	-0.193813	 3.566525	-1.378229	 35.397820	-2.634230	 0.537823	 2.128101	 0.932858	 2.901002	 5.057195	-0.545760	 98.782560	 88.254490	 167.906200	-44.191100	 74.952330	 57.142580	-2.573740	-12.457990	 22.716230	-24.383720	-11.566730	 9.741340	-7.181299	-3.492334	-37.021710	 5.070815	-0.697434	-9.399699	-2.350882	 35.473990	 5.254307
-20.193070	-44.367470	 0.718498	-50.095660	 8.953893	 2.018298	 5.050302	-17.360630	 175.461700	-3.782302	-33.011300	-0.877547	-1.915907	 82.906520	 0.160534	-2.330610	 36.804540	-0.193061	-2.796011	-18.038130	-179.283100	-0.841329	-34.549480	-0.769535	-3.072005	 86.029800	 2.530755	 2.394262	 25.893340	-0.053124	 3.485076	 3.880507	-1.250608	 6.634000	 4.149221	-1.849090	 8.414734	 2.351171	 0.384959	-98.789990	 88.576040	-171.013000	 57.992910	 65.429470	-69.833240	-4.281222	-4.727290	-22.623310	 5.930897	-10.624270	-5.436368	-3.661379	-11.295440	 3.280337	-5.213516	-0.193813	 3.566525	-1.378229	 35.397820	-2.634230	 0.453460	 1.994579	 0.966487	 2.851463	 5.125490	-0.811028	 98.330520	 88.176090	 168.355800	-43.369160	 74.703390	 56.700140	-2.186825	-12.501770	 23.136890	-24.059310	-11.581610	 9.746287	-7.200264	-3.537746	-37.035940	 5.070815	-0.697434	-9.399699	-2.350882	 35.473990	 5.254307
